<svg width="100" height="100" viewBox="0 0 100 100" fill="none" xmlns="http://www.w3.org/2000/svg">
<path d="M53.6667 29.2375L73.5584 34.5334M49.4084 45.0542L59.3501 47.7042M49.9042 74.8584L53.8792 75.9209C65.1292 78.9209 70.7542 80.4167 75.1876 77.8709C79.6167 75.3292 81.1251 69.7334 84.1376 58.55L88.4001 42.7292C91.4167 31.5417 92.9209 25.95 90.3626 21.5417C87.8042 17.1334 82.1834 15.6375 70.9292 12.6417L66.9542 11.5792C55.7042 8.57919 50.0792 7.08335 45.6501 9.62919C41.2167 12.1709 39.7084 17.7667 36.6917 28.95L32.4334 44.7709C29.4167 55.9584 27.9084 61.55 30.4709 65.9584C33.0292 70.3625 38.6542 71.8625 49.9042 74.8584Z" stroke="black" stroke-width="1.5" stroke-linecap="round" stroke-linejoin="round"/>
<path d="M50 87.275L46.0334 88.3583C34.8084 91.4125 29.2 92.9417 24.775 90.3458C20.3584 87.7542 18.85 82.0542 15.8459 70.6458L11.5917 54.5125C8.58336 43.1083 7.0792 37.4042 9.63336 32.9125C11.8417 29.025 16.6667 29.1667 22.9167 29.1667" stroke="black" stroke-width="1.5" stroke-linecap="round" stroke-linejoin="round"/>
</svg>
